# xmcd
#
# Track frame offsets: 
#        150
#        17894
#        37176
#        50582
#        66896
#        86292
#        97473
#        113624
#
# Disc length: 1704 seconds
#
# Revision: 0
# Processed by: cddbd v1.5.2PL0 Copyright (c) Steve Scherf et al.
# Submitted via: ExactAudioCopy v1.3
#
DISCID=6b06a608
DTITLE=Sean Pinchin - Bad Things
DYEAR=2019
DGENRE=Delta Blues
TTITLE0=If You're Gonna Leave Me
TTITLE1=Bad Things
TTITLE2=Lie To Me
TTITLE3=Someone Like You
TTITLE4=Devil Got My Women
TTITLE5=Nobody's Fault But Mine
TTITLE6=Hands To Yourself
TTITLE7=River
EXTD=
EXTT0=
EXTT1=
EXTT2=
EXTT3=
EXTT4=
EXTT5=
EXTT6=
EXTT7=
PLAYORDER=
